# xmcd
# 
# Track frame offsets:
#     150
#     15415
#     29839
#     40586
#     54256
#     67026
#     76077
#     87942
#     106641
#     118911
#     130368
#     138935
# 
# Disc length: 2024
# 
# Revision: 1
# Processed by: cddbd v1.5.2PL0 Copyright (c) Steve Scherf et al.
# Submitted via: fre:ac v1.1beta1pre5
# 
DISCID=9507e60c
DTITLE=Various Artist - Volksmusik CD06
DYEAR=0
DGENRE=Folklore
TTITLE0=Monique - Die Farben der Liebe
TTITLE1=Juergen Bauer - Ein Freund
TTITLE2=Andrea and Gunter - Trompeten Echo
TTITLE3=Nilsen Brothers - Bring mir die Welt zum klingen
TTITLE4=Jacqueline Bach - Kleines Mädchen
TTITLE5=Zillertaler Vagabunden - Zillertaler Hochzeitsmarsch
TTITLE6=Oliver Peter - Chacha d'amor
TTITLE7=Lolita - Seemann, bleib zu Hause
TTITLE8=Marianne Hagen - Lebe wohl
TTITLE9=Klostertaler Vagabunden - Verliebt, verloren
TTITLE10=Natascha - Wie ein Blatt im Wind
TTITLE11=TommasoFerrari - Olala l'amore
EXTD=
EXTT0=
EXTT1=
EXTT2=
EXTT3=
EXTT4=
EXTT5=
EXTT6=
EXTT7=
EXTT8=
EXTT9=
EXTT10=
EXTT11=
PLAYORDER=
